#!OML:ASF E:\emotionWalksFemale\Project 1\Capture day 1\Session 1\Female1.ASF
:FULLY-SPECIFIED
:DEGREES
160
root 9.09521 14.8639 20.3012 191.545 56.8055 -179.76
lowerback 14.0593 -3.38389 -4.43847
upperback -4.35771 -5.51537 -1.30661
thorax -12.4381 -2.29048 2.39196
lowerneck -2.90286 -11.1026 -15.8925
upperneck -14.2527 -12.6428 21.3167
head -1.04607 -6.06331 8.96861
rclavicle -2.24627e-014 7.95139e-016
rhumerus -75.8967 37.258 -90.3065
rradius 88.587
rwrist -5.77242
rhand 3.31857 -49.2333
rfingers 7.12502
rthumb 28.7649 -77.0373
lclavicle -2.24627e-014 7.95139e-016
lhumerus 4.84618 -2.4653 76.4637
lradius 29.9724
lwrist -35.1459
lhand -6.11151 -39.6908
lfingers 7.12502
lthumb 19.7252 -10.6716
rfemur -35.1675 9.99161 21.8539
rtibia 50.0645
rfoot -18.2645 -6.78993
rtoes -2.24461
lfemur -27.8015 23.3053 -25.4275
ltibia 60.2181
lfoot -13.123 22.6857
ltoes -56.4196
161
root 9.11755 15.0757 20.1608 190.091 60.8198 -180.336
lowerback 13.5922 -3.521 -3.85835
upperback -4.42913 -5.59909 -1.61281
thorax -12.3212 -2.39403 1.72365
lowerneck -1.93443 -12.0273 -16.4644
upperneck -14.8335 -13.9882 22.0189
head -1.01151 -6.79912 9.2401
rclavicle 2.22639e-014 1.03368e-014
rhumerus -76.5742 37.9047 -90.7675
rradius 91.2011
rwrist -6.17564
rhand 3.82388 -48.5809
rfingers 7.12502
rthumb 29.2475 -76.3018
lclavicle 2.22639e-014 1.03368e-014
lhumerus 2.19806 -8.29 73.9083
lradius 30.8912
lwrist -30.7744
lhand -6.57993 -37.0599
lfingers 7.12502
lthumb 19.2748 -7.9951
rfemur -32.5132 10.7315 21.2027
rtibia 46.6302
rfoot -15.823 -4.36872
rtoes -2.20449
lfemur -25.2221 23.5037 -25.6856
ltibia 58.3269
lfoot -9.35247 21.9647
ltoes -55.304
162
root 9.14654 15.3041 20.0281 188.639 64.8402 -180.963
lowerback 13.0876 -3.59327 -3.6407
upperback -4.54353 -5.62696 -1.52198
thorax -12.1572 -2.42808 1.67564
lowerneck -1.51135 -12.8819 -17.6163
upperneck -14.6404 -15.3056 22.6292
head -0.6211 -7.46819 9.48629
rclavicle -3.84648e-014 -4.21423e-014
rhumerus -76.6885 39.1175 -90.867
rradius 92.6661
rwrist -6.93751
rhand 3.75374 -47.8598
rfingers 7.12502
rthumb 29.1806 -75.5923
lclavicle -3.84648e-014 -4.21423e-014
lhumerus -0.357706 -14.7296 72.5523
lradius 31.5717
lwrist -25.2692
lhand -6.31608 -36.9479
lfingers 7.12502
lthumb 19.5285 -7.90864
rfemur -29.8628 11.5947 20.6233
rtibia 42.8836
rfoot -12.8443 -1.6445
rtoes 1.11178
lfemur -22.8965 23.2392 -25.8668
ltibia 56.4986
lfoot -4.86965 21.0746
ltoes -54.4969
163
root 9.17999 15.5386 19.9111 187.513 69.1752 -181.385
lowerback 12.6 -4.07618 -4.14927
upperback -4.84655 -6.32762 -1.29677
thorax -12.0971 -2.70965 2.32688
lowerneck -1.19314 -13.1742 -16.7579
upperneck -13.9559 -15.9282 21.8241
head -0.529359 -7.83432 9.02525
rclavicle 5.87906e-014 -3.97569e-014
rhumerus -76.7203 41.6565 -92.0396
rradius 93.9474
rwrist -6.94137
rhand 4.61159 -47.0964
rfingers 7.12502
rthumb 29.9994 -74.6837
lclavicle 5.87906e-014 -3.97569e-014
lhumerus -3.77216 -14.0473 72.1217
lradius 31.0038
lwrist -25.8261
lhand -5.49506 -38.1948
lfingers 7.12502
lthumb 20.3177 -9.23754
rfemur -27.3726 12.7761 20.2183
rtibia 38.8215
rfoot -8.4825 2.29957
rtoes 3.03713
lfemur -20.9163 22.7943 -25.876
ltibia 54.7336
lfoot -0.120713 20.2386
ltoes -53.2949
164
root 9.21854 15.7862 19.8034 186.147 73.8079 -182.051
lowerback 12.3053 -4.14273 -4.51857
upperback -4.69162 -6.43312 -1.04271
thorax -11.6652 -2.74355 2.79316
lowerneck -1.75902 -14.1665 -17.1052
upperneck -13.6605 -17.2606 22.3007
head -0.0221187 -8.4756 9.00115
rclavicle -3.21037e-014 -8.74653e-015
rhumerus -74.7411 42.9528 -91.385
rradius 94.6182
rwrist -6.77154
rhand 3.9186 -45.5561
rfingers 7.12502
rthumb 29.338 -73.2612
lclavicle -3.21037e-014 -8.74653e-015
lhumerus -6.36205 -15.1725 71.9089
lradius 30.9181
lwrist -25.5409
lhand -4.88782 -37.5194
lfingers 7.12502
lthumb 20.9012 -8.6254
rfemur -24.8572 14.215 19.8378
rtibia 34.4759
rfoot -4.49775 4.45447
rtoes 0.804549
lfemur -19.0595 22.0288 -25.8422
ltibia 53.0298
lfoot 4.56369 19.3844
ltoes -51.9892
165
root 9.26596 16.0446 19.6954 184.633 78.2368 -182.857
lowerback 11.7822 -4.22397 -4.73647
upperback -4.89001 -6.53196 -0.814175
thorax -11.5177 -2.77059 3.14089
lowerneck -0.301957 -14.7986 -16.3248
upperneck -14.3369 -18.2874 21.9822
head -0.377991 -9.11116 8.81991
rclavicle -1.13307e-014 -1.74931e-014
rhumerus -74.3618 44.5244 -92.1524
rradius 95.3551
rwrist -6.60455
rhand 3.14547 -44.1617
rfingers 7.12502
rthumb 28.5996 -71.9936
lclavicle -1.13307e-014 -1.74931e-014
lhumerus -10.1931 -16.6758 72.5352
lradius 31.1124
lwrist -26.1315
lhand -4.20424 -36.931
lfingers 7.12502
lthumb 21.5578 -8.11086
rfemur -22.2223 15.6138 19.5965
rtibia 29.8513
rfoot 0.637849 6.61771
rtoes 2.09991
lfemur -17.3632 20.4705 -25.7605
ltibia 51.4018
lfoot 10.1977 17.5697
ltoes -53.0836
